<svg xmlns="http://www.w3.org/2000/svg" xmlns:xlink="http://www.w3.org/1999/xlink" width="1122" height="801" viewBox="0 0 296.862 211.931">
  <defs>
    <linearGradient id="b" x1="132.851" x2="186.478" y1="239.792" y2="239.792" gradientUnits="userSpaceOnUse">
      <stop offset="0" stop-color="#84c3f0"/>
      <stop offset=".5" stop-color="#98d4f7"/>
      <stop offset=".5" stop-color="#ace5ff"/>
      <stop offset="1" stop-color="#ace5ff"/>
    </linearGradient>
    <linearGradient id="c" x1="130.44" x2="188.727" y1="245.997" y2="245.997" gradientTransform="translate(.064 -.064)" gradientUnits="userSpaceOnUse">
      <stop offset="0" stop-color="#59f"/>
      <stop offset=".5" stop-color="#2a7fff"/>
      <stop offset=".5" stop-color="#59f"/>
      <stop offset="1" stop-color="#2a7fff"/>
    </linearGradient>
    <linearGradient id="d" x1="159.653" x2="159.653" y1="163.696" y2="171.071" gradientUnits="userSpaceOnUse">
      <stop offset="0" stop-color="#656766"/>
      <stop offset=".25" stop-color="#696d6e"/>
      <stop offset=".75" stop-color="#f6f4f5"/>
      <stop offset="1" stop-color="#f6f4f5"/>
    </linearGradient>
    <linearGradient xlink:href="#a" id="e" x1="-36.127" x2="-36.127" y1="169.783" y2="164.204" gradientTransform="translate(230.19)" gradientUnits="userSpaceOnUse"/>
    <linearGradient id="a">
      <stop offset="0" stop-color="#656766"/>
      <stop offset=".336" stop-color="#696d6e"/>
      <stop offset=".75" stop-color="#f6f4f5"/>
      <stop offset="1" stop-color="#f6f4f5"/>
    </linearGradient>
    <linearGradient xlink:href="#a" id="f" x1="125.417" x2="125.417" y1="169.438" y2="164.538" gradientUnits="userSpaceOnUse"/>
  </defs>
  <path fill="#00032b" d="M-.981 233.56h298.78v42.526H-.981z" style="paint-order:fill markers stroke" transform="translate(0 -85.069)"/>
  <path fill="#333" stroke="#000" stroke-width=".213" d="M159.08 148.491-.98 180.385v31.894H297.8v-31.894Z"/>
  <path fill="none" stroke="#fff" stroke-width="2.415" d="m-.981 191.021 138.72-31.894"/>
  <path fill="none" stroke="#fc0" stroke-width="4.026" d="m154.81 212.281 4.268-148.84M163.35 212.281l-4.268-148.84"/>
  <path fill="navy" stroke="#000" stroke-width=".213" d="M-.981-.349h298.78v148.84H-.981Z"/>
  <path fill="#fff" stroke="#fff" stroke-width="2.415" d="m297.8 191.021-117.38-31.894"/>
  <ellipse cx="227.53" cy="71.591" fill="#fff" rx="28.713" ry="28.608" style="paint-order:fill markers stroke"/>
  <path fill="#00032b" d="m297.8 142.111-7.95-2.31-6.071-.967-1.457-1.694s-2.428 2.178-5.828 1.21l-3.4-.968-2.671 1.21-12.384-6.049-3.642 1.452s-2.186-1.936-3.885-2.903c-1.7-.968-2.186-.968-2.186-.968l-4.614 1.451-3.157-2.177-2.914 3.145s-1.457-2.903-4.613-2.903c-3.157 0-4.857-2.903-4.857-2.903l-4.857 5.564-5.099-2.903s0 3.629-3.642 1.694l-3.643-1.936-3.4 1.936-5.342-3.146-5.828.242-3.642-3.629-5.343.242-3.157 3.387s-2.671-.484-6.07 2.42l-3.4 2.903-4.128-2.661-4.857 1.209-6.313.242-2.186 1.21-4.128-1.21-5.585 2.178-5.099 1.935-7.771-.726-9.956-3.387-17.97-2.903s-1.7-2.661-7.285-2.661-5.585-1.21-5.585-1.21l-5.585 3.629-4.128-.968-4.857-.484s.243 2.42-7.77 2.662c-8.014.242-17.97.967-17.97.967l-15.784 3.63-27.683 5.08-11.087 2.068v6.379H297.8Z"/>
  <g style="paint-order:stroke markers fill;stroke-dasharray:none;stroke-width:1.00012501">
    <path fill="#67bef4" stroke="#000" stroke-width=".6" d="M133.592 151.597c-3.532.9-6.271 2.47-8.792 4.194l1.598 9.788 3.198-.699h59.952l3.198.699 1.598-9.788c-1.83-1.4-4.351-3.081-8.792-4.194Z" style="paint-order:stroke markers fill;stroke-dasharray:none;stroke-width:1.00012501"/>
    <path stroke="#000" stroke-width=".265" d="M180.755 173.969v4.894s.012.915.357 1.196c.308.251 1.241.202 1.241.202h4.796s.924.03 1.211-.229c.503-.455.388-1.868.388-1.868v-4.195ZM130.394 173.969v4.894s.012.915.357 1.196c.308.251 1.242.202 1.242.202h4.796s.923.03 1.21-.229c.503-.455.389-1.868.389-1.868v-4.195Z" style="paint-order:stroke markers fill;stroke-dasharray:none;stroke-width:1.00012501"/>
    <path fill="#303030" stroke="#000" stroke-width=".6" d="m126.397 168.375 2.398-.699h61.551l2.398.699 1.599 5.593h-4.796l-2.398.699h-55.155l-2.398-.699h-4.797Z" style="paint-order:stroke markers fill;stroke-dasharray:none;stroke-width:1.00012501"/>
    <path fill="#f60" stroke="#000" stroke-width=".6" d="M123.201 168.375h3.197v.699s-.799 4.894-1.599 4.894c-.799 0-1.598-5.593-1.598-5.593Z" class="lights" style="paint-order:stroke markers fill;stroke-dasharray:none;stroke-width:1.00012501"/>
    <path fill="#f60" stroke="#000" stroke-linejoin="round" stroke-width=".6" d="M192.746 168.375h3.197s-.799 5.593-1.599 5.593c-.799 0-1.598-4.894-1.598-4.894Z" class="lights" style="paint-order:stroke markers fill;stroke-dasharray:none;stroke-width:1.00012501"/>
    <path fill="#fff" stroke="#000" stroke-width=".6" d="M133.592 151.597s17.312-.949 25.98-.949c8.667 0 25.979.949 25.979.949s-2.268-6.179-4.796-8.39c-.843-.737-2.051-1.115-3.197-1.398-5.765-1.42-11.912-1.342-17.901-1.342-6.004-.001-12.206-.198-17.946 1.342a9.134 9.134 0 0 0-3.088 1.511c-2.632 1.985-5.03 8.276-5.03 8.276" style="paint-order:stroke markers fill;stroke-dasharray:none;stroke-width:1.00012501"/>
    <path fill="#60625f" stroke="#000" stroke-width=".6" d="M130.394 167.675h58.355l-.8 5.593h-56.753Z" style="paint-order:stroke markers fill;stroke-dasharray:none;stroke-width:1.00012501"/>
    <path stroke="#000" stroke-width=".6" d="M153.577 167.675v4.894h11.99v-4.894Z" style="paint-order:stroke markers fill;stroke-dasharray:none;stroke-width:1.00012501"/>
    <path fill="#776f64" stroke="#000" stroke-width=".6" d="M133.208 169.073h17.171v2.097h-16.786ZM168.764 169.073v2.097h16.786l.485-2.097Z" style="paint-order:stroke markers fill;stroke-dasharray:none;stroke-width:1.00012501"/>
    <path fill="#262c2c" stroke="#000" stroke-width=".6" d="M145.583 169.073v2.097h4.796v-2.097ZM168.764 169.073v2.097h4.796v-2.097Z" style="paint-order:stroke markers fill;stroke-dasharray:none;stroke-width:1.00012501"/>
    <path fill="#d5e5ff" stroke="#000" stroke-linejoin="round" stroke-width=".6" d="M140.787 143.907c1.598-.699 12.502-.708 18.762-.708 6.275 0 17.209.009 18.808.708 1.598.7 3.197 5.804 3.197 5.804s-14.653-.437-21.982-.437c-7.329 0-21.982.437-21.982.437s1.598-5.105 3.197-5.804Z" style="paint-order:stroke markers fill;stroke-dasharray:none;stroke-width:1.00012501"/>
    <path fill="red" stroke="#000" stroke-linejoin="round" stroke-width=".6" d="M192.746 165.58h3.197s-.799-9.788-1.599-9.788c-.799 0-1.598 9.788-1.598 9.788Z" style="paint-order:stroke markers fill;stroke-dasharray:none;stroke-width:1.00012501"/>
    <path fill="url(#b)" stroke="#000" stroke-opacity=".926" stroke-width=".6" d="M130.394 164.879s.24-4.701.8-6.991c.528-2.161 2.398-6.291 2.398-6.291s17.33-.965 26.006-.965c8.659 0 25.952.965 25.952.965s1.869 4.13 2.398 6.291c.56 2.291.799 6.991.799 6.991Z" style="fill:url(#b);paint-order:stroke markers fill;stroke-dasharray:none;stroke-width:1.00012501"/>
    <path fill="url(#c)" d="m131.301 157.901 56.563-.005c.582 2.262.613 4.642.904 6.968h-58.355c.212-2.259.329-4.497.885-6.963Z" style="fill:url(#c);paint-order:stroke markers fill;stroke-dasharray:none;stroke-width:1.00012501"/>
    <path fill="red" stroke="#000" stroke-width=".6" d="M123.201 165.58h3.197s-.799-9.788-1.599-9.788c-.799 0-1.598 9.788-1.598 9.788Z" style="paint-order:stroke markers fill;stroke-dasharray:none;stroke-width:1.00012501"/>
    <path fill="url(#d)" stroke="#000" stroke-width=".6" d="M122.4 166.977c0-.521.799-1.398.799-1.398h3.198l3.197-.699h59.953l3.197.699h3.198s.799.877.799 1.398c0 .521-.799 1.399-.799 1.399h-3.198l-2.398-.699h-61.551l-2.398.699H123.2s-.8-.878-.8-1.399Z" style="paint-order:stroke markers fill;stroke-dasharray:none;stroke-width:1.00012501;fill-opacity:1;fill:url(#d)"/>
    <path fill="url(#e)" stroke="#000" stroke-width=".6" d="M192.746 165.58h3.197s.799.877.799 1.398c0 .521-.799 1.398-.799 1.398h-3.197s-.8-.877-.8-1.398c0-.521.8-1.398.8-1.398Z" style="paint-order:stroke markers fill;stroke-dasharray:none;stroke-width:1.00012501;fill:url(#e)"/>
    <path fill="url(#f)" stroke="#000" stroke-width=".6" d="M123.201 165.58h3.197s.799.877.799 1.398c0 .521-.799 1.398-.799 1.398h-3.197s-.8-.877-.8-1.398c0-.521.8-1.398.8-1.398Z" style="paint-order:stroke markers fill;stroke-dasharray:none;stroke-width:1.00012501;fill:url(#f)"/>
    <path fill="#b7c8c4" d="M157.944 160.062h3.198l-.372.622v.699h-2.398v-.699Z" style="paint-order:stroke markers fill;stroke-dasharray:none;stroke-width:1.00012501"/>
    <path fill="url(#b)" d="M130.394 164.879s.24-4.701.8-6.991c.528-2.161 2.398-6.291 2.398-6.291s17.33-.965 26.006-.965c8.659 0 25.952.965 25.952.965s1.869 4.13 2.398 6.291c.56 2.291.799 6.991.799 6.991Z" style="fill:none;paint-order:markers stroke fill;stroke-dasharray:none;stroke-linejoin:miter;stroke-miterlimit:4;stroke-width:0"/>
  </g>
  <ellipse cx="17.966" cy="26.641" fill="#fff" fill-opacity=".994" rx="1.584" ry="1.578" style="paint-order:fill markers stroke"/>
  <ellipse cx="180.66" cy="17.851" fill="#fff" fill-opacity=".994" rx="2.263" ry="2.254" style="paint-order:fill markers stroke"/>
  <ellipse cx="120.4" cy="22.421" fill="#fff" fill-opacity=".994" rx=".506" ry=".504" style="paint-order:fill markers stroke"/>
  <ellipse cx="79.509" cy="11.199" fill="#fff" fill-opacity=".994" rx=".368" ry=".367" style="paint-order:fill markers stroke"/>
  <ellipse cx="155.35" cy="95.841" fill="#fff" fill-opacity=".994" rx=".506" ry=".504" style="paint-order:fill markers stroke"/>
  <ellipse cx="28.639" cy="95.151" fill="#fff" fill-opacity=".994" rx=".552" ry=".55" style="paint-order:fill markers stroke"/>
  <ellipse cx="40.374" cy="110.581" fill="#fff" fill-opacity=".994" rx="1.035" ry="1.031" style="paint-order:fill markers stroke"/>
  <ellipse cx="17.287" cy="119.971" fill="#fff" fill-opacity=".994" rx=".932" ry=".928" style="paint-order:fill markers stroke"/>
  <ellipse cx="5.691" cy="73.551" fill="#fff" fill-opacity=".994" rx="1.346" ry="1.341" style="paint-order:fill markers stroke"/>
  <ellipse cx="33.127" cy="54.261" fill="#fff" fill-opacity=".994" rx=".621" ry=".619" style="paint-order:fill markers stroke"/>
  <ellipse cx="71.225" cy="32.601" fill="#fff" fill-opacity=".994" rx="1.035" ry="1.031" style="paint-order:fill markers stroke"/>
  <ellipse cx="97.522" cy="28.271" fill="#fff" fill-opacity=".994" rx="1.035" ry="1.031" style="paint-order:fill markers stroke"/>
  <ellipse cx="95.555" cy="46.321" fill="#fff" fill-opacity=".994" rx=".518" ry=".516" style="paint-order:fill markers stroke"/>
  <ellipse cx="185.32" cy="50.761" fill="#fff" fill-opacity=".994" rx=".828" ry=".825" style="paint-order:fill markers stroke"/>
  <ellipse cx="157.98" cy="45.191" fill="#fff" fill-opacity=".994" rx="1.035" ry="1.031" style="paint-order:fill markers stroke"/>
  <ellipse cx="133.24" cy="35.391" fill="#fff" fill-opacity=".994" rx=".518" ry=".516" style="paint-order:fill markers stroke"/>
  <ellipse cx="156.22" cy="12.281" fill="#fff" fill-opacity=".994" rx="1.139" ry="1.135" style="paint-order:fill markers stroke"/>
  <ellipse cx="287.81" cy="8.671" fill="#fff" fill-opacity=".994" rx="1.035" ry="1.031" style="paint-order:fill markers stroke"/>
  <ellipse cx="257.48" cy="15.791" fill="#fff" fill-opacity=".994" rx=".518" ry=".516" style="paint-order:fill markers stroke"/>
  <ellipse cx="276.73" cy="24.451" fill="#fff" fill-opacity=".994" rx="1.139" ry="1.135" style="paint-order:fill markers stroke"/>
  <ellipse cx="251.37" cy="30.131" fill="#fff" fill-opacity=".994" rx=".828" ry=".825" style="paint-order:fill markers stroke"/>
  <ellipse cx="215.75" cy="12.385" fill="#fff" fill-opacity=".994" rx="1.035" ry="1.031" style="paint-order:fill markers stroke"/>
  <ellipse cx="5.691" cy="73.551" fill="#fff" fill-opacity=".994" rx="1.346" ry="1.341" style="paint-order:fill markers stroke"/>
  <ellipse cx="95.958" cy="87.567" fill="#fff" fill-opacity=".994" rx=".552" ry=".55" style="paint-order:fill markers stroke"/>
  <ellipse cx="58.553" cy="95.164" fill="#fff" fill-opacity=".994" rx="1.242" ry="1.238" style="paint-order:fill markers stroke"/>
  <ellipse cx="89.736" cy="69.224" fill="#fff" fill-opacity=".994" rx="1.035" ry="1.032" style="paint-order:fill markers stroke"/>
  <ellipse cx="123.332" cy="61.477" fill="#fff" fill-opacity=".994" rx=".621" ry=".619" style="paint-order:fill markers stroke"/>
  <ellipse cx="110.858" cy="115.291" fill="#fff" fill-opacity=".994" rx="1.345" ry="1.341" style="paint-order:fill markers stroke"/>
  <ellipse cx="78.519" cy="104.317" fill="#fff" fill-opacity=".994" rx=".931" ry=".929" style="paint-order:fill markers stroke"/>
  <ellipse cx="95.958" cy="87.567" fill="#fff" fill-opacity=".994" rx=".552" ry=".55" style="paint-order:fill markers stroke"/>
  <ellipse cx="58.553" cy="95.164" fill="#fff" fill-opacity=".994" rx="1.242" ry="1.238" style="paint-order:fill markers stroke"/>
  <ellipse cx="89.736" cy="69.224" fill="#fff" fill-opacity=".994" rx="1.035" ry="1.032" style="paint-order:fill markers stroke"/>
  <ellipse cx="123.332" cy="61.477" fill="#fff" fill-opacity=".994" rx=".621" ry=".619" style="paint-order:fill markers stroke"/>
  <ellipse cx="110.858" cy="115.291" fill="#fff" fill-opacity=".994" rx="1.345" ry="1.341" style="paint-order:fill markers stroke"/>
  <ellipse cx="78.519" cy="104.317" fill="#fff" fill-opacity=".994" rx=".931" ry=".929" style="paint-order:fill markers stroke"/>
  <ellipse cx="285.798" cy="89.878" fill="#fff" fill-opacity=".994" rx=".506" ry=".504" style="paint-order:fill markers stroke"/>
  <ellipse cx="270.41" cy="80.052" fill="#fff" fill-opacity=".994" rx=".518" ry=".516" style="paint-order:fill markers stroke"/>
  <ellipse cx="281.466" cy="44.539" fill="#fff" fill-opacity=".994" rx=".932" ry=".928" style="paint-order:fill markers stroke"/>
  <ellipse cx="274.324" cy="52.424" fill="#fff" fill-opacity=".994" rx=".621" ry=".619" style="paint-order:fill markers stroke"/>
  <ellipse cx="281.466" cy="44.539" fill="#fff" fill-opacity=".994" rx=".932" ry=".928" style="paint-order:fill markers stroke"/>
  <ellipse cx="274.324" cy="52.424" fill="#fff" fill-opacity=".994" rx=".621" ry=".619" style="paint-order:fill markers stroke"/>
</svg>