<?xml version="1.0" encoding="UTF-8" standalone="no"?>
<svg
   xmlns:dc="http://purl.org/dc/elements/1.1/"
   xmlns:cc="http://creativecommons.org/ns#"
   xmlns:rdf="http://www.w3.org/1999/02/22-rdf-syntax-ns#"
   xmlns:svg="http://www.w3.org/2000/svg"
   xmlns="http://www.w3.org/2000/svg"
   xmlns:xlink="http://www.w3.org/1999/xlink"
   xmlns:sodipodi="http://sodipodi.sourceforge.net/DTD/sodipodi-0.dtd"
   xmlns:inkscape="http://www.inkscape.org/namespaces/inkscape"
   viewBox="0 0 640 480"
   version="1.1"
   id="svg48"
   sodipodi:docname="tools-312334.svg"
   inkscape:version="0.92.4 (5da689c313, 2019-01-14)"
   width="640"
   height="480">
  <metadata
     id="metadata52">
    <rdf:RDF>
      <cc:Work
         rdf:about="">
        <dc:format>image/svg+xml</dc:format>
        <dc:type
           rdf:resource="http://purl.org/dc/dcmitype/StillImage" />
        <dc:title></dc:title>
      </cc:Work>
    </rdf:RDF>
  </metadata>
  <sodipodi:namedview
     pagecolor="#ffffff"
     bordercolor="#666666"
     borderopacity="1"
     objecttolerance="10"
     gridtolerance="10"
     guidetolerance="10"
     inkscape:pageopacity="0"
     inkscape:pageshadow="2"
     inkscape:window-width="2560"
     inkscape:window-height="1017"
     id="namedview50"
     showgrid="false"
     inkscape:zoom="0.49166667"
     inkscape:cx="1379.3054"
     inkscape:cy="246.26804"
     inkscape:window-x="-8"
     inkscape:window-y="-8"
     inkscape:window-maximized="1"
     inkscape:current-layer="svg48" />
  <defs
     id="defs6">
    <clipPath
       id="e">
      <path
         id="a"
         d="m 22.42,17.2 12.96,12.95 -2.5,8.78 -8.78,2.5 -12.96,-12.96 -5.86,5.86 14.89,21.46 17.56,-3.34 61.63,65.62 c 9.44,9.51 22.17,-4.75 13.34,-12.87 L 46.85,42.92 50.86,25.16 28.72,10.89 Z m 81.06,91.97 c 1.68,-1.68 4.4,-1.68 6.08,0 1.68,1.68 1.68,4.4 0,6.08 -1.68,1.67 -4.4,1.67 -6.08,0 -1.68,-1.68 -1.68,-4.4 0,-6.08 z"
         inkscape:connector-curvature="0" />
    </clipPath>
    <clipPath
       id="f">
      <path
         id="b"
         d="m 55.8,12 0.76,0.16 c 8.84,-2.94 28.68,8.64 24.26,18.96 -1.12,1.62 -0.93,4.5 0.42,6.31 L 56.43,62.25 c -1.39,-1.39 -4.48,-1.36 -5.9,0 L 9.5,101.63 c -3.74,3.59 -0.8,6.64 0.78,8.25 l 7.36,7.36 c 1.61,1.6 5.86,3.76 8.88,0.56 L 65.24,76.99 c 1.35,-1.42 1.36,-4.47 0,-5.87 0,0 0.01,-0.02 0,-0.02 L 90.15,46.2 c 2.63,2.37 5.1138,2.5748 7.47,1.93 4.5506,-1.2454 7.0872,3.2066 9.81,6.46 l -1.23,1.21 c -1.82,1.84 -1.65,4.94 0.39,6.98 2.04,2.04 5.15,2.21 6.97,0.39 l 8.14,-8.13 c 1.82,-1.84 1.65,-4.94 -0.39999,-6.97 -1.84,-1.85 -4.51,-2.09 -6.37,-0.77 -5.58,-6.26 -2.65,-7.2 -10.01,-15.35 l -13.79,-14.09 c -9.93,-9.74 -22.83,-9.73 -35.33,-5.86 z"
         inkscape:connector-curvature="0" />
    </clipPath>
  </defs>
  <g
     id="g855"
     transform="matrix(1.3095526,0,0,1.3840087,-28.520048,-73.343962)"
     style="fill:#ffffff;fill-opacity:1">
    <use
       height="100%"
       width="100%"
       style="fill:#ffffff;fill-opacity:1"
       id="use8"
       xlink:href="#a"
       y="90"
       x="55"
       transform="matrix(2.4776,0,0,2.2719,-88.950042,-126.65835)"
       class="outline-big" />
    <use
       height="100%"
       width="100%"
       style="fill:#ffffff;fill-opacity:1"
       id="use10"
       xlink:href="#a"
       y="90"
       x="55"
       transform="matrix(2.4776,0,0,2.2719,-88.950042,-126.65835)"
       class="outline-small" />
    <use
       height="100%"
       width="100%"
       style="fill:#ffffff;fill-opacity:1"
       id="use12"
       xlink:href="#a"
       y="90"
       x="55"
       transform="matrix(2.4776,0,0,2.2719,-88.950042,-126.65835)"
       class="aluminium4" />
    <use
       height="100%"
       width="100%"
       style="fill:#ffffff;fill-opacity:1"
       id="use14"
       xlink:href="#a"
       clip-path="url(#e)"
       y="90"
       x="55"
       transform="matrix(2.4776,0,0,2.2719,-88.950042,-126.65835)"
       class="stroke-highlight" />
    <path
       inkscape:connector-curvature="0"
       style="fill:#ffffff;fill-opacity:1"
       id="path16"
       d="m 107.6,112.8 33.323,30.398 -8.2503,26.559 -27.129,7.4292 -33.616,-31.216 -11.724,10.315 35.181,45.302 46.826,-9.4058 154.85,150.77 c 18.582,18.857 50.047,-6.0661 27.6,-26.354 l -165.75,-143.36 9.5634,-39.009 -49.452,-31.875 -11.422,10.451 z m 198.13,211.97 c 4.1375,-3.7941 11.471,-4.5439 15.609,-0.68158 4.2118,3.7942 7.5813,10.519 1.6104,17.812 -4.9551,4.5439 -12.883,4.3622 -17.838,-0.54526 -4.1623,-3.8168 -3.5925,-12.723 0.61938,-16.585 z"
       class="high-specularity" />
    <path
       inkscape:connector-curvature="0"
       style="fill:#ffffff;fill-opacity:1"
       id="path18"
       d="m 107.27,112.85 58.148,53.731 7.9778,-31.512 -54.754,-32.716 -11.372,10.496 z"
       class="specularity" />
    <path
       inkscape:connector-curvature="0"
       style="fill:#ffffff;fill-opacity:1"
       id="path20"
       d="m 222.58,226.67 11.474,9.7239 c 0.94148,9.8148 -1.8086,12.768 -19.399,26.445 l -21.307,-20.947 29.21,-15.222 h 0.0223 z"
       class="low-shade" />
    <use
       height="100%"
       width="100%"
       style="fill:#ffffff;fill-opacity:1"
       id="use22"
       xlink:href="#b"
       y="90"
       x="55"
       transform="matrix(2.4776,0,0,2.2719,-88.950042,-126.65835)"
       class="outline-big" />
    <use
       height="100%"
       width="100%"
       style="fill:#ffffff;fill-opacity:1"
       id="use24"
       xlink:href="#b"
       y="90"
       x="55"
       transform="matrix(2.4776,0,0,2.2719,-88.950042,-126.65835)"
       class="outline-small stroke-aluminium5" />
    <path
       inkscape:connector-curvature="0"
       style="fill:#ffffff;fill-opacity:1"
       id="path26"
       d="M 252.76,159.03 179.796,225.939 201.673,246 274.637,179.114 Z"
       class="aluminium2" />
    <path
       inkscape:connector-curvature="0"
       style="fill:#ffffff;fill-opacity:1"
       id="path28"
       d="m 267.65,172.69 -72.964,66.886 6.9867,6.4296 72.964,-66.886 z"
       class="specularity" />
    <path
       inkscape:connector-curvature="0"
       style="fill:#ffffff;fill-opacity:1"
       id="path30"
       d="m 261.53,161.96 -72.667,66.636 9.3899,8.6107 70.809,-68.34 -7.5318,-6.9067 z" />
    <path
       inkscape:connector-curvature="0"
       style="fill:#ffffff;fill-opacity:1"
       id="path32"
       d="m 185.57,105.08 1.8829,0.3635 c 21.902,-6.6795 71.056,19.63 60.106,43.076 -2.7749,3.6806 -2.3042,10.224 1.0405,14.336 l 22.075,19.925 c 6.516,5.3845 12.66,5.8389 18.507,4.3849 11.273,-2.7945 17.541,7.2702 24.305,14.677 l -3.0474,2.7491 c -4.5092,4.1804 -4.088,11.223 0.96625,15.858 5.0542,4.6348 12.759,5.021 17.269,0.88605 l 20.167,-18.471 c 4.5092,-4.1804 4.088,-11.223 -0.991,-15.835 -4.5588,-4.2031 -11.174,-4.7484 -15.782,-1.7494 -13.825,-14.222 -6.5655,-16.358 -24.8,-34.874 l -34.166,-32.012 c -24.602,-22.129 -56.563,-22.106 -87.532,-13.314 z"
       class="aluminium6" />
    <path
       inkscape:connector-curvature="0"
       style="fill:#ffffff;fill-opacity:1"
       id="path34"
       d="m 332.06,185.27 c -13.825,-14.222 -6.5655,-16.358 -24.8,-34.874 L 273.094,118.384 C 258.997,105.707 242.471,100.299 225.128,99.618 l 101.9,94.354 7.3716,-6.2024 -2.3422,-2.4991 z"
       class="specularity" />
    <path
       inkscape:connector-curvature="0"
       style="fill:#ffffff;fill-opacity:1"
       id="path36"
       d="m 249.12,141.43 c 0.12389,2.2719 -0.44432,4.5439 -1.6104,7.0885 -2.7253,3.6806 -2.2546,10.224 1.0901,14.336 l 22.075,19.925 c 6.516,5.3845 12.66,5.8389 18.507,4.3849 2.6758,-0.74974 5.1038,-0.61343 7.3832,0 6.9371,1.7494 -47.47,-46.688 -47.445,-45.961 v 0.22719 z"
       class="low-specularity" />
    <path
       inkscape:connector-curvature="0"
       style="fill:#ffffff;fill-opacity:1"
       id="path38"
       d="m 187.13,219.24 c -3.4438,-3.158 -11.1,-3.0898 -14.618,0 l -101.65,89.469 c -9.2661,8.1562 -2.0316,15.086 1.9325,18.744 l 18.235,16.721 c 3.9889,3.6351 14.518,8.5425 22.001,1.2723 l 95.931,-92.718 c 3.3447,-3.2261 3.3695,-10.156 0,-13.336 0,0 0.0248,-0.0454 0,-0.0454 l -21.827,-20.107 z" />
    <path
       inkscape:connector-curvature="0"
       style="fill:#ffffff;fill-opacity:1"
       id="path40"
       d="m 72.762,327.43 18.235,16.744 c 3.9889,3.6351 14.196,8.8379 21.679,1.6131 l 96.303,-93.081 c 3.3447,-3.2489 3.4438,-10.224 0,-13.359 l -21.877,-20.084 -114.34,108.17 z"
       class="low-shade" />
    <path
       inkscape:connector-curvature="0"
       style="fill:#ffffff;fill-opacity:1"
       id="path42"
       d="m 174.17,227.08 -96.328,86.424 c -4.0136,3.5442 -2.651,8.5198 0.24775,11.11 l 10.232,9.0196 104.97,-99.056 -9.712,-8.3607 c -2.0812,-1.8176 -6.9372,-1.295 -9.4147,0.86331 z"
       class="specularity" />
    <use
       height="100%"
       width="100%"
       style="fill:#ffffff;fill-opacity:1"
       id="use44"
       xlink:href="#b"
       clip-path="url(#f)"
       y="90"
       x="55"
       transform="matrix(2.4776,0,0,2.2719,-88.950042,-126.65835)"
       class="stroke-highlight" />
    <path
       inkscape:connector-curvature="0"
       style="fill:#ffffff;fill-opacity:1"
       id="path46"
       d="m 345.74,189.73 c 3.7411,3.2716 4.4596,7.8155 -0.6937,12.178 l -9.5882,8.2471 c -5.1533,4.4303 -18.631,-7.3838 -13.503,-11.791 l 9.6129,-8.2472 c 5.1285,-4.4303 10.43,-3.6578 14.172,-0.38622 z" />
  </g>
</svg>
