<?xml version="1.0" encoding="UTF-8" standalone="no"?>
<svg
   xmlns:dc="http://purl.org/dc/elements/1.1/"
   xmlns:cc="http://creativecommons.org/ns#"
   xmlns:rdf="http://www.w3.org/1999/02/22-rdf-syntax-ns#"
   xmlns:svg="http://www.w3.org/2000/svg"
   xmlns="http://www.w3.org/2000/svg"
   xmlns:sodipodi="http://sodipodi.sourceforge.net/DTD/sodipodi-0.dtd"
   xmlns:inkscape="http://www.inkscape.org/namespaces/inkscape"
   viewBox="0 0 50 25"
   x="0px"
   y="0px"
   version="1.1"
   id="svg12"
   sodipodi:docname="hero.svg"
   width="50"
   height="25"
   inkscape:version="0.92.4 (5da689c313, 2019-01-14)">
  <metadata
     id="metadata18">
    <rdf:RDF>
      <cc:Work
         rdf:about="">
        <dc:format>image/svg+xml</dc:format>
        <dc:type
           rdf:resource="http://purl.org/dc/dcmitype/StillImage" />
        <dc:title>Hammer</dc:title>
      </cc:Work>
    </rdf:RDF>
  </metadata>
  <defs
     id="defs16" />
  <sodipodi:namedview
     pagecolor="#ffffff"
     bordercolor="#666666"
     borderopacity="1"
     objecttolerance="10"
     gridtolerance="10"
     guidetolerance="10"
     inkscape:pageopacity="0"
     inkscape:pageshadow="2"
     inkscape:window-width="2560"
     inkscape:window-height="1017"
     id="namedview14"
     showgrid="false"
     inkscape:zoom="16.68772"
     inkscape:cx="47.22382"
     inkscape:cy="17.101732"
     inkscape:window-x="-8"
     inkscape:window-y="-8"
     inkscape:window-maximized="1"
     inkscape:current-layer="g6" />
  <title
     id="title2">Hammer</title>
  <g
     data-name="Layer 1"
     id="g6"
     transform="translate(-0.00250279,-7.015339)">
    <path
       d="m 39.259051,19.924028 -1.499066,-2.596459 v 0 A 3,3 0 0 0 34.761852,12.13465 v 0 L 33.262786,9.5381913 a 3.09,3.09 0 0 0 -4.105185,-1.099981 l -3.446709,2.0062887 a 3,3 0 0 0 -1.097393,4.095525 l 1.508726,2.599048 -14.287597,8.232617 a 3,3 0 0 0 -1.097392,4.095526 v 0 a 3,3 0 0 0 4.095525,1.097393 l 14.268278,-8.237794 1.501654,2.5868 a 3,3 0 0 0 4.095526,1.097392 l 3.466028,-2.001112 a 3,3 0 0 0 1.099981,-4.105185 z M 37.11824,14.236135 A 1,1 0 0 1 36.750717,15.60775 L 35.756285,13.8712 a 1,1 0 0 1 1.361955,0.364935 z M 13.835741,28.837717 a 1,1 0 0 1 -1.371615,-0.367523 v 0 a 1,1 0 0 1 0.367523,-1.371614 l 14.265689,-8.228135 0.997021,1.72689 z m 23.328897,-6.545054 v 0 L 33.69861,24.293775 A 1,1 0 0 1 32.326996,23.926252 L 26.33073,13.540416 a 1,1 0 0 1 0.367523,-1.371615 l 3.466028,-2.001112 a 1,1 0 0 1 1.361955,0.364935 l 6.003337,10.398084 a 1,1 0 0 1 -0.364935,1.361955 z"
       id="path4"
       inkscape:connector-curvature="0"
       style="fill:#090c9b;fill-opacity:1" />
  </g>
</svg>
