<?xml version="1.0" encoding="UTF-8" standalone="no"?>
<svg
   xmlns:dc="http://purl.org/dc/elements/1.1/"
   xmlns:cc="http://creativecommons.org/ns#"
   xmlns:rdf="http://www.w3.org/1999/02/22-rdf-syntax-ns#"
   xmlns:svg="http://www.w3.org/2000/svg"
   xmlns="http://www.w3.org/2000/svg"
   xmlns:sodipodi="http://sodipodi.sourceforge.net/DTD/sodipodi-0.dtd"
   xmlns:inkscape="http://www.inkscape.org/namespaces/inkscape"
   version="1.1"
   x="0px"
   y="0px"
   viewBox="0 0 1024 1280"
   style="enable-background:new 0 0 1024 1024;"
   xml:space="preserve"
   id="svg50"
   sodipodi:docname="noun_hand shake_2507256.svg"
   inkscape:version="0.92.4 (5da689c313, 2019-01-14)"><metadata
     id="metadata56"><rdf:RDF><cc:Work
         rdf:about=""><dc:format>image/svg+xml</dc:format><dc:type
           rdf:resource="http://purl.org/dc/dcmitype/StillImage" /></cc:Work></rdf:RDF></metadata><defs
     id="defs54" /><sodipodi:namedview
     pagecolor="#ffffff"
     bordercolor="#666666"
     borderopacity="1"
     objecttolerance="10"
     gridtolerance="10"
     guidetolerance="10"
     inkscape:pageopacity="0"
     inkscape:pageshadow="2"
     inkscape:window-width="2560"
     inkscape:window-height="1017"
     id="namedview52"
     showgrid="false"
     inkscape:zoom="0.36875"
     inkscape:cx="458.23668"
     inkscape:cy="681.89936"
     inkscape:window-x="-8"
     inkscape:window-y="-8"
     inkscape:window-maximized="1"
     inkscape:current-layer="g887" /><g
     id="g44"><g
       id="g887"
       transform="matrix(0.98678695,0,0,0.98678695,2.122686,68.906396)"><g
         id="g919"><g
           style="fill:#090c9b;fill-opacity:1"
           id="g6"
           transform="translate(4.5256403,66.690003)"><g
             style="fill:#090c9b;fill-opacity:1"
             id="g4"><path
               style="fill:#090c9b;fill-opacity:1"
               d="m 391.2,237.4 c -8.2,8.2 -16.5,16.5 -24.7,24.7 -19.7,19.7 -39.5,39.5 -59.2,59.2 -23.8,23.8 -47.7,47.7 -71.5,71.5 -20.5,20.5 -41,41 -61.5,61.5 -9.8,9.7 -19.3,19.7 -29.3,29.2 -0.8,0.8 -1.6,1.5 -2.5,2.2 2.5,-2 5.1,-3.9 7.6,-5.9 -1.6,1.1 -3.1,2 -4.9,2.8 3,-1.3 6,-2.5 9,-3.8 -1.7,0.6 -3.5,1.1 -5.3,1.4 3.3,-0.4 6.6,-0.9 10,-1.3 -1.8,0.2 -3.6,0.2 -5.4,0 3.3,0.4 6.6,0.9 10,1.3 -1.8,-0.3 -3.5,-0.7 -5.3,-1.4 3,1.3 6,2.5 9,3.8 -1.7,-0.8 -3.3,-1.7 -4.9,-2.8 2.5,2 5.1,3.9 7.6,5.9 -3.7,-3.1 -7,-6.7 -10.4,-10.2 -7.1,-7.1 -14.2,-14.2 -21.3,-21.3 C 122.1,438.1 106,422 89.9,405.9 c -4.1,-4.1 -8.5,-8 -12.2,-12.5 2,2.5 3.9,5.1 5.9,7.6 -1.1,-1.6 -2,-3.1 -2.8,-4.9 1.3,3 2.5,6 3.8,9 -0.6,-1.7 -1.1,-3.5 -1.4,-5.3 0.4,3.3 0.9,6.6 1.3,10 -0.2,-1.8 -0.2,-3.6 0,-5.4 -0.4,3.3 -0.9,6.6 -1.3,10 0.3,-1.8 0.7,-3.5 1.4,-5.3 -1.3,3 -2.5,6 -3.8,9 0.8,-1.7 1.7,-3.3 2.8,-4.9 -2,2.5 -3.9,5.1 -5.9,7.6 7.7,-9.4 17.4,-17.6 25.9,-26.2 19.6,-19.6 39.3,-39.3 58.9,-58.9 23.9,-23.9 47.9,-47.9 71.8,-71.8 20.6,-20.6 41.3,-41.3 61.9,-61.9 9.8,-9.8 19.4,-19.9 29.5,-29.5 0.8,-0.8 1.6,-1.5 2.5,-2.2 -2.5,2 -5.1,3.9 -7.6,5.9 1.6,-1.1 3.1,-2 4.9,-2.8 -3,1.3 -6,2.5 -9,3.8 1.7,-0.6 3.5,-1.1 5.3,-1.4 -3.3,0.4 -6.6,0.9 -10,1.3 1.8,-0.2 3.6,-0.2 5.4,0 -3.3,-0.4 -6.6,-0.9 -10,-1.3 1.8,0.3 3.5,0.7 5.3,1.4 -3,-1.3 -6,-2.5 -9,-3.8 1.7,0.8 3.3,1.7 4.9,2.8 -2.5,-2 -5.1,-3.9 -7.6,-5.9 3.7,3.1 7,6.7 10.4,10.2 7.1,7.1 14.2,14.2 21.3,21.3 16.1,16.1 32.2,32.2 48.3,48.3 4.1,4.1 8.5,8 12.2,12.5 -2,-2.5 -3.9,-5.1 -5.9,-7.6 1.1,1.6 2,3.1 2.8,4.9 -1.3,-3 -2.5,-6 -3.8,-9 0.6,1.7 1.1,3.5 1.4,5.3 -0.4,-3.3 -0.9,-6.6 -1.3,-10 0.2,1.8 0.2,3.6 0,5.4 0.4,-3.3 0.9,-6.6 1.3,-10 -0.3,1.8 -0.7,3.5 -1.4,5.3 1.3,-3 2.5,-6 3.8,-9 -0.8,1.7 -1.7,3.3 -2.8,4.9 2,-2.5 3.9,-5.1 5.9,-7.6 -0.5,0.7 -1.2,1.5 -1.8,2.2 -13.4,14.3 -15.3,39 0,53 14.6,13.4 38.7,15.3 53,0 14.3,-15.3 19.9,-35.1 15.5,-55.6 -2.3,-10.6 -8.5,-20.4 -16,-28 -4.1,-4.2 -8.4,-8.4 -12.5,-12.5 -16.5,-16.5 -33,-33 -49.6,-49.6 -14.7,-14.7 -29.1,-32.8 -49.2,-39.9 -21.1,-7.5 -44.7,-0.3 -60.2,15 -2.2,2.1 -4.3,4.3 -6.4,6.4 C 240.4,151.6 215,177 189.6,202.4 155.4,236.5 121.2,270.7 87,305 c -19.9,19.9 -40,39.7 -59.7,59.7 -15.1,15.4 -21,36.1 -16.2,57.1 2.9,12.9 11.2,22.8 20.3,31.8 14.9,14.9 29.9,29.9 44.8,44.8 12.6,12.6 25,25.2 37.7,37.7 19.5,19.2 50.9,24.4 74.2,8.6 5.1,-3.5 8.8,-6.8 12.9,-10.9 22.5,-22.5 45,-45 67.5,-67.5 34.6,-34.6 69.2,-69.2 103.8,-103.8 22.9,-22.9 45.7,-45.7 68.6,-68.6 1.1,-1.1 2.3,-2.3 3.4,-3.4 13.9,-13.9 14.9,-39.3 0,-53 -15.1,-13.9 -38.3,-15 -53.1,-0.1 z"
               id="path2"
               inkscape:connector-curvature="0" /></g></g><g
           style="fill:#090c9b;fill-opacity:1"
           id="g12"
           transform="translate(4.5256403,66.690003)"><g
             style="fill:#090c9b;fill-opacity:1"
             id="g10"><path
               style="fill:#090c9b;fill-opacity:1"
               d="m 371,310.6 c 9.3,8.3 19.3,16.6 30.4,22.3 19.8,10.2 46.5,19 64.8,0.8 -12.2,3.2 -24.3,6.4 -36.5,9.6 9.1,1.7 17.8,4.3 26.3,7.9 -3,-1.3 -6,-2.5 -9,-3.8 9.4,4.1 18.2,9.3 26.3,15.6 -2.5,-2 -5.1,-3.9 -7.6,-5.9 7,5.5 13.2,11.9 19.5,18.2 13.9,13.9 39.3,14.9 53,0 13.7,-15 14.8,-38.2 0,-53 -11.1,-11.1 -22.4,-21.6 -35.6,-30.1 -10.1,-6.6 -21.4,-11.5 -32.7,-15.6 -4.3,-1.6 -8.7,-2.9 -13.2,-4 -2.4,-0.6 -4.8,-1.1 -7.2,-1.5 -8.6,-1.5 -16.2,-1.6 -24.4,1.9 -4.4,1.9 -8.6,4.3 -12.1,7.8 12.2,-3.2 24.3,-6.4 36.5,-9.6 -4.7,-0.9 -9.3,-2.2 -13.7,-4 3,1.3 6,2.5 9,3.8 -7.2,-3.1 -13.7,-7.2 -20,-11.9 2.5,2 5.1,3.9 7.6,5.9 -2.9,-2.3 -5.7,-4.7 -8.5,-7.1 -7.4,-6.6 -16.3,-11 -26.5,-11 -9.2,0 -20.2,4.1 -26.5,11 -6.6,7.1 -11.4,16.5 -11,26.5 0.5,9.3 3.7,19.5 11.1,26.2 z"
               id="path8"
               inkscape:connector-curvature="0" /></g></g><g
           style="fill:#090c9b;fill-opacity:1"
           id="g18"
           transform="translate(4.5256403,66.690003)"><g
             style="fill:#090c9b;fill-opacity:1"
             id="g16"><path
               style="fill:#090c9b;fill-opacity:1"
               d="m 607.5,628 c 22.1,22.1 44.3,44.3 66.4,66.4 4,4 8.2,7.9 11.8,12.3 -2,-2.5 -3.9,-5.1 -5.9,-7.6 2.6,3.4 4.6,7 6.3,10.9 -1.3,-3 -2.5,-6 -3.8,-9 1.3,3.4 2.3,6.9 2.9,10.6 -0.4,-3.3 -0.9,-6.6 -1.3,-10 0.6,4.6 0.6,9 0,13.6 0.4,-3.3 0.9,-6.6 1.3,-10 -0.6,3.6 -1.5,7.1 -2.9,10.6 1.3,-3 2.5,-6 3.8,-9 -1.7,3.9 -3.7,7.5 -6.3,10.9 2,-2.5 3.9,-5.1 5.9,-7.6 -2.6,3.2 -5.5,6.1 -8.8,8.6 2.5,-2 5.1,-3.9 7.6,-5.9 -3,2.2 -6.2,4 -9.6,5.5 3,-1.3 6,-2.5 9,-3.8 -3.9,1.6 -7.8,2.6 -11.9,3.3 3.3,-0.4 6.6,-0.9 10,-1.3 -4.1,0.5 -8.2,0.5 -12.3,0 3.3,0.4 6.6,0.9 10,1.3 -4.1,-0.6 -8.1,-1.7 -11.9,-3.3 3,1.3 6,2.5 9,3.8 -3.4,-1.5 -6.6,-3.3 -9.6,-5.5 2.5,2 5.1,3.9 7.6,5.9 -10.3,-8 -19.1,-18.5 -28.3,-27.7 -13.7,-13.7 -27.4,-27.4 -41.2,-41.2 -3.3,-3.3 -6.5,-6.5 -9.8,-9.8 -13.9,-13.9 -39.3,-14.9 -53,0 -13.7,15 -14.8,38.2 0,53 13.3,13.3 26.7,26.7 40,40 8.7,8.7 17.3,17.3 26,26 7.8,7.8 15.3,15.5 24.9,21.2 13.7,8.2 31.2,12.8 47.2,11.4 19.9,-1.8 37,-8.9 52.1,-22 23.2,-20.1 32.2,-55 23.8,-84.2 -7.7,-26.7 -29.5,-44.6 -48.4,-63.4 -15.8,-15.8 -31.5,-31.5 -47.3,-47.3 -13.9,-13.9 -39.3,-14.9 -53,0 -14.1,15.3 -15.2,38.5 -0.3,53.3 z"
               id="path14"
               inkscape:connector-curvature="0" /></g></g><g
           style="fill:#090c9b;fill-opacity:1"
           id="g24"
           transform="translate(4.5256403,66.690003)"><g
             style="fill:#090c9b;fill-opacity:1"
             id="g22"><path
               style="fill:#090c9b;fill-opacity:1"
               d="m 542.2,693.3 c 22.1,22.1 44.3,44.3 66.4,66.4 4,4 8.2,7.9 11.8,12.3 -2,-2.5 -3.9,-5.1 -5.9,-7.6 2.6,3.4 4.6,7 6.3,10.9 -1.3,-3 -2.5,-6 -3.8,-9 1.3,3.4 2.3,6.9 2.9,10.6 -0.4,-3.3 -0.9,-6.6 -1.3,-10 0.6,4.6 0.6,9 0,13.6 0.4,-3.3 0.9,-6.6 1.3,-10 -0.6,3.6 -1.5,7.1 -2.9,10.6 1.3,-3 2.5,-6 3.8,-9 -1.7,3.9 -3.7,7.5 -6.3,10.9 2,-2.5 3.9,-5.1 5.9,-7.6 -2.6,3.2 -5.5,6.1 -8.8,8.6 2.5,-2 5.1,-3.9 7.6,-5.9 -3,2.2 -6.2,4 -9.6,5.5 3,-1.3 6,-2.5 9,-3.8 -3.9,1.6 -7.8,2.6 -11.9,3.3 3.3,-0.4 6.6,-0.9 10,-1.3 -4.1,0.5 -8.2,0.5 -12.3,0 3.3,0.4 6.6,0.9 10,1.3 -4.1,-0.6 -8.1,-1.7 -11.9,-3.3 3,1.3 6,2.5 9,3.8 -3.4,-1.5 -6.6,-3.3 -9.6,-5.5 2.5,2 5.1,3.9 7.6,5.9 -10.3,-8 -19.1,-18.5 -28.3,-27.7 -13.7,-13.7 -27.4,-27.4 -41.2,-41.2 -3.3,-3.3 -6.5,-6.5 -9.8,-9.8 -13.9,-13.9 -39.3,-14.9 -53,0 -13.7,15 -14.8,38.2 0,53 13.3,13.3 26.7,26.7 40,40 8.7,8.7 17.3,17.3 26,26 7.8,7.8 15.3,15.5 24.9,21.2 13.7,8.2 31.2,12.8 47.2,11.4 19.9,-1.8 37,-8.9 52.1,-22 23.2,-20.1 32.2,-55 23.8,-84.2 C 683.5,724 661.7,706.1 642.8,687.3 627,671.5 611.3,655.8 595.5,640 c -13.9,-13.9 -39.3,-14.9 -53,0 -14.1,15.3 -15.1,38.5 -0.3,53.3 z"
               id="path20"
               inkscape:connector-curvature="0" /></g></g><g
           style="fill:#090c9b;fill-opacity:1"
           id="g30"
           transform="translate(4.5256403,66.690003)"><g
             style="fill:#090c9b;fill-opacity:1"
             id="g28"><path
               style="fill:#090c9b;fill-opacity:1"
               d="m 476.9,758.6 c 22.1,22.1 44.3,44.3 66.4,66.4 4,4 8.2,7.9 11.8,12.3 -2,-2.5 -3.9,-5.1 -5.9,-7.6 2.6,3.4 4.6,7 6.3,10.9 -1.3,-3 -2.5,-6 -3.8,-9 1.3,3.4 2.3,6.9 2.9,10.6 -0.4,-3.3 -0.9,-6.6 -1.3,-10 0.6,4.6 0.6,9 0,13.6 0.4,-3.3 0.9,-6.6 1.3,-10 -0.6,3.6 -1.5,7.1 -2.9,10.6 1.3,-3 2.5,-6 3.8,-9 -1.7,3.9 -3.7,7.5 -6.3,10.9 2,-2.5 3.9,-5.1 5.9,-7.6 -2.6,3.2 -5.5,6.1 -8.8,8.6 2.5,-2 5.1,-3.9 7.6,-5.9 -3,2.2 -6.2,4 -9.6,5.5 3,-1.3 6,-2.5 9,-3.8 -3.9,1.6 -7.8,2.6 -11.9,3.3 3.3,-0.4 6.6,-0.9 10,-1.3 -4.1,0.5 -8.2,0.5 -12.3,0 3.3,0.4 6.6,0.9 10,1.3 -4.1,-0.6 -8.1,-1.7 -11.9,-3.3 3,1.3 6,2.5 9,3.8 -3.4,-1.5 -6.6,-3.3 -9.6,-5.5 2.5,2 5.1,3.9 7.6,5.9 -11.3,-8.8 -21,-20.4 -31.1,-30.5 -22,-22 -43.9,-43.9 -65.9,-65.9 -26.6,-26.6 -53.2,-53.2 -79.8,-79.8 -22.7,-22.7 -45.3,-45.3 -68,-68 -10.1,-10.1 -20.4,-20.3 -30.5,-30.5 -3.5,-3.5 -6.7,-7.1 -9.7,-11 2,2.5 3.9,5.1 5.9,7.6 -6.3,-8.1 -11.4,-16.9 -15.6,-26.3 1.3,3 2.5,6 3.8,9 -3.6,-8.5 -6.2,-17.3 -7.9,-26.3 -3.2,12.2 -6.4,24.3 -9.6,36.5 8.3,-8.3 11.9,-20 10.3,-31.5 -0.5,-3.7 -1.1,-7.3 -1.9,-11 -1.2,-5.1 -2.7,-10.1 -4.5,-15 -4.5,-12 -9.8,-23.7 -16.9,-34.3 -5.5,-8.1 -12.7,-14.6 -22.4,-17.2 -9,-2.5 -20.9,-1.4 -28.9,3.8 -16.2,10.4 -25.1,33.9 -13.5,51.3 4.5,6.8 8.4,13.8 11.5,21.3 -1.3,-3 -2.5,-6 -3.8,-9 3.3,8.1 5.7,16.4 7.3,25.1 3.2,-12.2 6.4,-24.3 9.6,-36.5 -17.2,17.2 -10,43 -1.8,62.8 6.8,16.4 15,30.3 26.2,44.1 3.7,4.5 7.6,8.6 11.7,12.7 9.6,9.6 19.2,19.2 28.9,28.9 36.8,36.8 73.6,73.6 110.3,110.3 35.2,35.2 70.4,70.4 105.6,105.6 7.3,7.3 14.7,14.7 22,22 4.7,4.7 10.1,8.9 15.7,12.5 13.5,8.7 31.8,13.7 47.8,12.3 20.3,-1.7 37.5,-8.7 52.9,-22.1 11.7,-10.1 20.7,-25.6 24.3,-40.6 7,-29 -1.3,-59 -22.2,-80.3 -5.5,-5.6 -11.1,-11.1 -16.7,-16.7 -17.9,-17.9 -35.8,-35.8 -53.7,-53.7 -1.2,-1.2 -2.4,-2.4 -3.6,-3.6 -13.9,-13.9 -39.3,-14.9 -53,0 -13.8,15.2 -14.9,38.5 -0.1,53.3 z"
               id="path26"
               inkscape:connector-curvature="0" /></g></g><g
           style="fill:#000000;fill-opacity:1"
           id="g36"
           transform="translate(4.5256403,66.690003)"><g
             style="fill:#e63946;fill-opacity:1"
             id="g34"><path
               style="fill:#e63946;fill-opacity:1"
               d="m 879.3,483.3 c -8.2,-8.2 -16.5,-16.5 -24.7,-24.7 -19.7,-19.7 -39.5,-39.5 -59.2,-59.2 -23.8,-23.8 -47.7,-47.7 -71.5,-71.5 -20.5,-20.5 -41,-41 -61.5,-61.5 -9.7,-9.7 -19.7,-19.3 -29.2,-29.2 -0.8,-0.8 -1.5,-1.6 -2.2,-2.5 2,2.5 3.9,5.1 5.9,7.6 -1.1,-1.6 -2,-3.1 -2.8,-4.9 1.3,3 2.5,6 3.8,9 -0.6,-1.7 -1.1,-3.5 -1.4,-5.3 0.4,3.3 0.9,6.6 1.3,10 -0.2,-1.8 -0.2,-3.6 0,-5.4 -0.4,3.3 -0.9,6.6 -1.3,10 0.3,-1.8 0.7,-3.5 1.4,-5.3 -1.3,3 -2.5,6 -3.8,9 0.8,-1.7 1.7,-3.3 2.8,-4.9 -2,2.5 -3.9,5.1 -5.9,7.6 3.1,-3.7 6.7,-7 10.2,-10.4 7.1,-7.1 14.2,-14.2 21.3,-21.3 16.1,-16.1 32.2,-32.2 48.3,-48.3 4.1,-4.1 8,-8.5 12.5,-12.2 -2.5,2 -5.1,3.9 -7.6,5.9 1.6,-1.1 3.1,-2 4.9,-2.8 -3,1.3 -6,2.5 -9,3.8 1.7,-0.6 3.5,-1.1 5.3,-1.4 -3.3,0.4 -6.6,0.9 -10,1.3 1.8,-0.2 3.6,-0.2 5.4,0 -3.3,-0.4 -6.6,-0.9 -10,-1.3 1.8,0.3 3.5,0.7 5.3,1.4 -3,-1.3 -6,-2.5 -9,-3.8 1.7,0.8 3.3,1.7 4.9,2.8 -2.5,-2 -5.1,-3.9 -7.6,-5.9 9.4,7.7 17.6,17.4 26.2,25.9 19.6,19.6 39.3,39.3 58.9,58.9 23.9,23.9 47.9,47.9 71.8,71.8 20.6,20.6 41.3,41.3 61.9,61.9 9.8,9.8 19.9,19.4 29.5,29.5 0.8,0.8 1.5,1.6 2.2,2.5 -2,-2.5 -3.9,-5.1 -5.9,-7.6 1.1,1.6 2,3.1 2.8,4.9 -1.3,-3 -2.5,-6 -3.8,-9 0.6,1.7 1.1,3.5 1.4,5.3 -0.4,-3.3 -0.9,-6.6 -1.3,-10 0.2,1.8 0.2,3.6 0,5.4 0.4,-3.3 0.9,-6.6 1.3,-10 -0.3,1.8 -0.7,3.5 -1.4,5.3 1.3,-3 2.5,-6 3.8,-9 -0.8,1.7 -1.7,3.3 -2.8,4.9 2,-2.5 3.9,-5.1 5.9,-7.6 -3.1,3.7 -6.7,7 -10.2,10.4 -7.1,7.1 -14.2,14.2 -21.3,21.3 -16.1,16.1 -32.2,32.2 -48.3,48.3 -4.1,4.1 -8,8.5 -12.5,12.2 2.5,-2 5.1,-3.9 7.6,-5.9 -1.6,1.1 -3.1,2 -4.9,2.8 3,-1.3 6,-2.5 9,-3.8 -1.7,0.6 -3.5,1.1 -5.3,1.4 3.3,-0.4 6.6,-0.9 10,-1.3 -1.8,0.2 -3.6,0.2 -5.4,0 3.3,0.4 6.6,0.9 10,1.3 -1.8,-0.3 -3.5,-0.7 -5.3,-1.4 3,1.3 6,2.5 9,3.8 -1.7,-0.8 -3.3,-1.7 -4.9,-2.8 2.5,2 5.1,3.9 7.6,5.9 -0.8,-0.6 -1.5,-1.3 -2.2,-1.9 -14.3,-13.4 -39,-15.3 -53,0 -13.4,14.6 -15.3,38.7 0,53 15.3,14.3 35.1,19.9 55.6,15.5 10.6,-2.3 20.4,-8.5 28,-16 4.2,-4.1 8.4,-8.4 12.5,-12.5 16.5,-16.5 33,-33 49.6,-49.6 14.7,-14.7 32.8,-29.1 39.9,-49.2 7.5,-21.1 0.3,-44.7 -15,-60.2 -2.1,-2.2 -4.3,-4.3 -6.4,-6.4 -25.4,-25.4 -50.8,-50.8 -76.2,-76.2 -34.2,-34.2 -68.4,-68.4 -102.6,-102.6 -19.9,-19.9 -39.7,-40 -59.7,-59.7 -15.4,-15.1 -36.1,-21 -57.1,-16.2 -12.9,2.9 -22.8,11.2 -31.8,20.3 -14.9,14.9 -29.9,29.9 -44.8,44.8 -12.6,12.6 -25.2,25 -37.7,37.7 -19.2,19.5 -24.4,50.9 -8.6,74.2 3.5,5.1 6.8,8.8 10.9,12.9 22.5,22.5 45,45 67.5,67.5 34.6,34.6 69.2,69.2 103.8,103.8 22.9,22.9 45.7,45.7 68.6,68.6 1.1,1.1 2.3,2.3 3.4,3.4 13.9,13.9 39.3,14.9 53,0 13.8,-15.1 14.9,-38.3 0.1,-53.1 z"
               id="path32"
               inkscape:connector-curvature="0" /></g></g><g
           style="fill:#e63946;fill-opacity:1"
           id="g42"
           transform="translate(4.5256403,66.690003)"><g
             style="fill:#e63946;fill-opacity:1"
             id="g40"><path
               style="fill:#e63946;fill-opacity:1"
               d="m 607.5,628 c 23.2,23.2 46.5,46.5 69.7,69.7 7,7 14.4,13.9 23.2,18.6 25.7,13.7 56.2,13.7 81.8,-0.4 12.3,-6.8 22.5,-17.3 30.1,-29.1 7.4,-11.5 10.4,-24.2 11.9,-37.6 2.8,-23.8 -7.7,-48.4 -24.1,-65.3 -15.6,-16 -31.6,-31.6 -47.4,-47.4 -30.3,-30.3 -60.6,-60.6 -90.8,-90.8 -19.1,-19.1 -38.1,-38.5 -57.4,-57.4 -0.3,-0.3 -0.6,-0.6 -0.9,-0.9 -14.3,-14.3 -38.7,-14.4 -53,0 -34.3,34.3 -68.6,68.6 -103,103 -5.6,5.6 -11,11.7 -17.2,16.7 2.5,-2 5.1,-3.9 7.6,-5.9 -3,2.3 -6.2,4.2 -9.6,5.7 3,-1.3 6,-2.5 9,-3.8 -3.8,1.6 -7.8,2.7 -11.9,3.4 3.3,-0.4 6.6,-0.9 10,-1.3 -4.6,0.6 -9,0.6 -13.6,0 3.3,0.4 6.6,0.9 10,1.3 -4.1,-0.7 -8,-1.8 -11.9,-3.4 3,1.3 6,2.5 9,3.8 -3.4,-1.6 -6.6,-3.5 -9.6,-5.7 2.5,2 5.1,3.9 7.6,5.9 -3.2,-2.6 -6.1,-5.5 -8.6,-8.7 2,2.5 3.9,5.1 5.9,7.6 -2.2,-3 -4,-6.2 -5.5,-9.6 1.3,3 2.5,6 3.8,9 -1.6,-3.9 -2.6,-7.8 -3.3,-12 0.4,3.3 0.9,6.6 1.3,10 -0.5,-4.2 -0.5,-8.3 0,-12.4 -0.4,3.3 -0.9,6.6 -1.3,10 0.6,-4.2 1.8,-8.2 3.4,-12.2 -1.3,3 -2.5,6 -3.8,9 1.6,-3.5 3.4,-6.7 5.7,-9.7 -2,2.5 -3.9,5.1 -5.9,7.6 4.6,-5.8 10.4,-10.9 15.6,-16.1 10.4,-10.4 20.9,-20.9 31.3,-31.3 23.1,-23.1 46.3,-46.3 69.4,-69.4 7.6,-7.6 15,-15.5 23.5,-22.2 -2.5,2 -5.1,3.9 -7.6,5.9 8.1,-6.3 16.9,-11.4 26.3,-15.6 -3,1.3 -6,2.5 -9,3.8 8.5,-3.6 17.3,-6.2 26.3,-7.9 -12.2,-3.2 -24.3,-6.4 -36.5,-9.6 8.3,8.3 20,11.9 31.5,10.3 3.7,-0.5 7.3,-1.1 11,-1.9 5.1,-1.2 10.1,-2.7 15,-4.5 12,-4.5 23.7,-9.8 34.3,-16.9 -15.1,-2 -30.3,-3.9 -45.4,-5.9 23.4,23.4 46.8,46.8 70.3,70.3 37.2,37.2 74.3,74.3 111.5,111.5 8.5,8.5 17,17 25.5,25.5 0,-17.7 0,-35.4 0,-53 -8.3,9.3 -16.6,19.3 -22.3,30.4 -10.2,19.8 -19,46.5 -0.8,64.8 -3.2,-12.2 -6.4,-24.3 -9.6,-36.5 -1.7,9.1 -4.3,17.8 -7.9,26.3 1.3,-3 2.5,-6 3.8,-9 -4.1,9.4 -9.3,18.2 -15.6,26.3 2,-2.5 3.9,-5.1 5.9,-7.6 -5.7,7.2 -12.3,13.5 -18.7,20 -13.9,13.9 -14.9,39.3 0,53 15,13.7 38.2,14.8 53,0 11.1,-11.1 21.6,-22.3 30.3,-35.5 6.6,-10.1 11.6,-21.3 15.8,-32.6 1.7,-4.5 3.1,-9.2 4.3,-13.9 0.6,-2.4 1.1,-4.8 1.5,-7.2 1.2,-6.8 1.6,-13.1 0,-19.9 -1.3,-5.7 -5.4,-12.3 -9.6,-16.6 3.2,12.2 6.4,24.3 9.6,36.5 0.9,-4.7 2.2,-9.3 4,-13.7 -1.3,3 -2.5,6 -3.8,9 3.1,-7.2 7.2,-13.7 11.9,-20 -2,2.5 -3.9,5.1 -5.9,7.6 2.3,-2.9 4.7,-5.7 7.1,-8.5 6.3,-7.1 11.4,-16.6 11,-26.5 -0.4,-9.9 -3.8,-19.3 -11,-26.5 -23.4,-23.4 -46.8,-46.8 -70.3,-70.3 -37.2,-37.2 -74.3,-74.3 -111.5,-111.5 -8.5,-8.5 -17,-17 -25.5,-25.5 -11.1,-11.1 -31.8,-15 -45.4,-5.9 -6.8,4.5 -13.8,8.4 -21.3,11.5 3,-1.3 6,-2.5 9,-3.8 -8.1,3.3 -16.4,5.7 -25.1,7.3 12.2,3.2 24.3,6.4 36.5,9.6 -7.1,-7.1 -16.7,-10.5 -26.5,-11 -4,-0.2 -10.2,1.3 -14.8,2.3 -4.5,1 -8.9,2.2 -13.2,3.7 -10.9,3.7 -21.7,8.4 -31.6,14.3 -11.4,6.9 -22.1,15.4 -31.5,24.8 -8.7,8.6 -17.3,17.3 -26,26 -28.2,28.2 -56.3,56.3 -84.5,84.5 -10.5,10.5 -22.2,20.9 -28.6,34.5 -12.1,25.7 -12.5,55.8 2.4,80.7 7.2,11.9 17.4,22.3 29.4,29.4 11.7,7 23.8,9.8 37.1,11.3 23.6,2.5 47.9,-7.9 64.6,-24.1 1.9,-1.9 3.8,-3.8 5.7,-5.7 11.7,-11.7 23.4,-23.4 35.1,-35.1 24.5,-24.5 49.3,-48.9 73.6,-73.6 0.5,-0.5 0.9,-0.9 1.4,-1.4 -17.7,0 -35.4,0 -53,0 22.7,22.7 45.3,45.3 68,68 35.2,35.2 70.5,70.5 105.7,105.7 8.9,8.9 18.9,17.4 26.7,27.3 -2,-2.5 -3.9,-5.1 -5.9,-7.6 2.6,3.4 4.6,7 6.3,10.9 -1.3,-3 -2.5,-6 -3.8,-9 1.3,3.4 2.3,6.9 2.9,10.6 -0.4,-3.3 -0.9,-6.6 -1.3,-10 0.6,4.6 0.6,9 0,13.6 0.4,-3.3 0.9,-6.6 1.3,-10 -0.6,3.6 -1.5,7.1 -2.9,10.6 1.3,-3 2.5,-6 3.8,-9 -1.7,3.9 -3.7,7.5 -6.3,10.9 2,-2.5 3.9,-5.1 5.9,-7.6 -2.6,3.2 -5.5,6.1 -8.8,8.6 2.5,-2 5.1,-3.9 7.6,-5.9 -3,2.2 -6.2,4 -9.6,5.5 3,-1.3 6,-2.5 9,-3.8 -3.9,1.6 -7.8,2.6 -11.9,3.3 3.3,-0.4 6.6,-0.9 10,-1.3 -4.1,0.5 -8.2,0.5 -12.3,0 3.3,0.4 6.6,0.9 10,1.3 -4.1,-0.6 -8.1,-1.7 -11.9,-3.3 3,1.3 6,2.5 9,3.8 -3.4,-1.5 -6.6,-3.3 -9.6,-5.5 2.5,2 5.1,3.9 7.6,5.9 -10.3,-8 -19.1,-18.5 -28.3,-27.7 -13.7,-13.7 -27.4,-27.4 -41.2,-41.2 -3.3,-3.3 -6.5,-6.5 -9.8,-9.8 -13.9,-13.9 -39.3,-14.9 -53,0 -14.2,15.1 -15.3,38.3 -0.4,53.1 z"
               id="path38"
               inkscape:connector-curvature="0" /></g></g><g
           transform="translate(136.12564,-62.109997)"
           id="g893"
           style="fill:#090c9b;fill-opacity:1"><g
             id="g891"
             style="fill:#090c9b;fill-opacity:1"><path
               inkscape:connector-curvature="0"
               id="path889"
               d="m 542.2,693.3 c 22.1,22.1 44.3,44.3 66.4,66.4 4,4 8.2,7.9 11.8,12.3 -2,-2.5 -3.9,-5.1 -5.9,-7.6 2.6,3.4 4.6,7 6.3,10.9 -1.3,-3 -2.5,-6 -3.8,-9 1.3,3.4 2.3,6.9 2.9,10.6 -0.4,-3.3 -0.9,-6.6 -1.3,-10 0.6,4.6 0.6,9 0,13.6 0.4,-3.3 0.9,-6.6 1.3,-10 -0.6,3.6 -1.5,7.1 -2.9,10.6 1.3,-3 2.5,-6 3.8,-9 -1.7,3.9 -3.7,7.5 -6.3,10.9 2,-2.5 3.9,-5.1 5.9,-7.6 -2.6,3.2 -5.5,6.1 -8.8,8.6 2.5,-2 5.1,-3.9 7.6,-5.9 -3,2.2 -6.2,4 -9.6,5.5 3,-1.3 6,-2.5 9,-3.8 -3.9,1.6 -7.8,2.6 -11.9,3.3 3.3,-0.4 6.6,-0.9 10,-1.3 -4.1,0.5 -8.2,0.5 -12.3,0 3.3,0.4 6.6,0.9 10,1.3 -4.1,-0.6 -8.1,-1.7 -11.9,-3.3 3,1.3 6,2.5 9,3.8 -3.4,-1.5 -6.6,-3.3 -9.6,-5.5 2.5,2 5.1,3.9 7.6,5.9 -10.3,-8 -19.1,-18.5 -28.3,-27.7 -13.7,-13.7 -27.4,-27.4 -41.2,-41.2 -3.3,-3.3 -6.5,-6.5 -9.8,-9.8 -13.9,-13.9 -39.3,-14.9 -53,0 -13.7,15 -14.8,38.2 0,53 13.3,13.3 26.7,26.7 40,40 8.7,8.7 17.3,17.3 26,26 7.8,7.8 15.3,15.5 24.9,21.2 13.7,8.2 31.2,12.8 47.2,11.4 19.9,-1.8 37,-8.9 52.1,-22 23.2,-20.1 32.2,-55 23.8,-84.2 C 683.5,724 661.7,706.1 642.8,687.3 627,671.5 611.3,655.8 595.5,640 c -13.9,-13.9 -39.3,-14.9 -53,0 -14.1,15.3 -15.1,38.5 -0.3,53.3 z"
               style="fill:#090c9b;fill-opacity:1" /></g></g></g></g></g></svg>