<?xml version="1.0" encoding="UTF-8" standalone="no"?>
<svg
   xmlns:dc="http://purl.org/dc/elements/1.1/"
   xmlns:cc="http://creativecommons.org/ns#"
   xmlns:rdf="http://www.w3.org/1999/02/22-rdf-syntax-ns#"
   xmlns:svg="http://www.w3.org/2000/svg"
   xmlns="http://www.w3.org/2000/svg"
   xmlns:sodipodi="http://sodipodi.sourceforge.net/DTD/sodipodi-0.dtd"
   xmlns:inkscape="http://www.inkscape.org/namespaces/inkscape"
   version="1.1"
   x="0px"
   y="0px"
   viewBox="0 0 100 125"
   style="enable-background:new 0 0 100 100;"
   xml:space="preserve"
   id="svg30"
   sodipodi:docname="ofirmie.svg"
   inkscape:version="0.92.4 (5da689c313, 2019-01-14)"><metadata
     id="metadata36"><rdf:RDF><cc:Work
         rdf:about=""><dc:format>image/svg+xml</dc:format><dc:type
           rdf:resource="http://purl.org/dc/dcmitype/StillImage" /><dc:title /></cc:Work></rdf:RDF></metadata><defs
     id="defs34" /><sodipodi:namedview
     pagecolor="#ffffff"
     bordercolor="#666666"
     borderopacity="1"
     objecttolerance="10"
     gridtolerance="10"
     guidetolerance="10"
     inkscape:pageopacity="0"
     inkscape:pageshadow="2"
     inkscape:window-width="2560"
     inkscape:window-height="1017"
     id="namedview32"
     showgrid="false"
     inkscape:zoom="5.3400704"
     inkscape:cx="78.553783"
     inkscape:cy="67.454509"
     inkscape:window-x="-8"
     inkscape:window-y="-8"
     inkscape:window-maximized="1"
     inkscape:current-layer="g853" /><g
     id="g24"
     transform="translate(0,12.55)"><g
       id="g22"><g
         id="g853"><path
           inkscape:connector-curvature="0"
           id="path2"
           d="M 88,91.8 H 82.2 V 64.5 c 0,0 0,0 0,0 0,0 0,0 0,0 v -29 c 0,0 0,0 0,0 0,0 0,0 0,0 V 6.6 C 82.2,5.7 81.5,5 80.6,5 H 19.4 c -0.9,0 -1.6,0.7 -1.6,1.6 v 28.9 c 0,0 0,0 0,0 0,0 0,0 0,0 v 28.9 c 0,0 0,0 0,0 0,0 0,0 0,0 V 91.7 H 12 c -0.9,0 -1.6,0.7 -1.6,1.6 0,0.9 0.7,1.6 1.6,1.6 h 7.4 61.2 7.4 c 0.9,0 1.6,-0.7 1.6,-1.6 0,-0.8 -0.7,-1.5 -1.6,-1.5 z M 21,62.9 V 37.1 H 79 V 62.9 H 21 Z M 21,8.2 H 79 V 34 H 21 Z M 44.2,78.6 H 55.5 V 91.9 H 44.2 Z M 55.6,75.4 H 44.2 v -0.1 l 5.7,-4.3 5.7,4.4 z m 3.2,16.4 V 74.5 c 0,-0.5 -0.2,-1 -0.6,-1.3 l -7.3,-5.5 c -0.6,-0.4 -1.4,-0.4 -1.9,0 l -7.3,5.5 C 41.3,73.5 41,74 41,74.5 V 91.8 H 21 V 66.1 H 79 V 91.9 H 58.8 Z"
           style="fill:#090c9b;fill-opacity:1" /><path
           style="fill:#e63946;fill-opacity:1"
           inkscape:connector-curvature="0"
           id="path4"
           d="M 36.4,72.3 H 25 c -0.9,0 -1.6,0.7 -1.6,1.6 V 84 c 0,0.9 0.7,1.6 1.6,1.6 H 36.4 C 37.3,85.6 38,84.9 38,84 V 73.8 C 38,73 37.3,72.3 36.4,72.3 Z m -1.6,10.1 h -8.2 v -7 h 8.2 z" /><path
           style="fill:#e63946;fill-opacity:1"
           inkscape:connector-curvature="0"
           id="path6"
           d="M 74.8,72.3 H 63.4 c -0.9,0 -1.6,0.7 -1.6,1.6 V 84 c 0,0.9 0.7,1.6 1.6,1.6 h 11.4 c 0.9,0 1.6,-0.7 1.6,-1.6 V 73.8 c 0,-0.8 -0.7,-1.5 -1.6,-1.5 z M 73.2,82.4 H 65 v -7 h 8.2 z" /><path
           style="fill:#e63946;fill-opacity:1"
           inkscape:connector-curvature="0"
           id="path8"
           d="M 36.4,43.3 H 25 c -0.9,0 -1.6,0.7 -1.6,1.6 v 10.2 c 0,0.9 0.7,1.6 1.6,1.6 H 36.4 C 37.3,56.7 38,56 38,55.1 V 44.9 C 38,44 37.3,43.3 36.4,43.3 Z m -1.6,10.2 h -8.2 v -7 h 8.2 z" /><path
           style="fill:#e63946;fill-opacity:1"
           inkscape:connector-curvature="0"
           id="path10"
           d="M 74.8,43.3 H 63.4 c -0.9,0 -1.6,0.7 -1.6,1.6 v 10.2 c 0,0.9 0.7,1.6 1.6,1.6 h 11.4 c 0.9,0 1.6,-0.7 1.6,-1.6 V 44.9 c 0,-0.9 -0.7,-1.6 -1.6,-1.6 z M 73.2,53.5 H 65 v -7 h 8.2 z" /><path
           style="fill:#e63946;fill-opacity:1"
           inkscape:connector-curvature="0"
           id="path12"
           d="M 55.6,43.3 H 44.2 c -0.9,0 -1.6,0.7 -1.6,1.6 v 10.2 c 0,0.9 0.7,1.6 1.6,1.6 h 11.4 c 0.9,0 1.6,-0.7 1.6,-1.6 V 44.9 c 0,-0.9 -0.7,-1.6 -1.6,-1.6 z M 54,53.5 h -8.2 v -7 H 54 Z" /><path
           style="fill:#e63946;fill-opacity:1"
           inkscape:connector-curvature="0"
           id="path14"
           d="M 36.4,14.4 H 25 c -0.9,0 -1.6,0.7 -1.6,1.6 v 10.2 c 0,0.9 0.7,1.6 1.6,1.6 h 11.4 c 0.9,0 1.6,-0.7 1.6,-1.6 V 16 c 0,-0.9 -0.7,-1.6 -1.6,-1.6 z m -1.6,10.2 h -8.2 v -7 h 8.2 z" /><path
           style="fill:#e63946;fill-opacity:1"
           inkscape:connector-curvature="0"
           id="path16"
           d="M 74.8,14.4 H 63.4 c -0.9,0 -1.6,0.7 -1.6,1.6 v 10.2 c 0,0.9 0.7,1.6 1.6,1.6 h 11.4 c 0.9,0 1.6,-0.7 1.6,-1.6 V 16 c 0,-0.9 -0.7,-1.6 -1.6,-1.6 z M 73.2,24.6 H 65 v -7 h 8.2 z" /><path
           style="fill:#e63946;fill-opacity:1"
           inkscape:connector-curvature="0"
           id="path18"
           d="M 55.6,14.4 H 44.2 c -0.9,0 -1.6,0.7 -1.6,1.6 v 10.2 c 0,0.9 0.7,1.6 1.6,1.6 h 11.4 c 0.9,0 1.6,-0.7 1.6,-1.6 V 16 c 0,-0.9 -0.7,-1.6 -1.6,-1.6 z M 54,24.6 h -8.2 v -7 H 54 Z" /><circle
           style="fill:#e63946;fill-opacity:1"
           id="circle20"
           r="1.8"
           cy="84.5"
           cx="52" /></g></g></g></svg>