<?xml version="1.0" encoding="UTF-8" standalone="no"?>
<svg
   xmlns:dc="http://purl.org/dc/elements/1.1/"
   xmlns:cc="http://creativecommons.org/ns#"
   xmlns:rdf="http://www.w3.org/1999/02/22-rdf-syntax-ns#"
   xmlns:svg="http://www.w3.org/2000/svg"
   xmlns="http://www.w3.org/2000/svg"
   xmlns:sodipodi="http://sodipodi.sourceforge.net/DTD/sodipodi-0.dtd"
   xmlns:inkscape="http://www.inkscape.org/namespaces/inkscape"
   viewBox="0 0 100 125"
   x="0px"
   y="0px"
   version="1.1"
   id="svg14"
   sodipodi:docname="noun_Crane_2556956.svg"
   width="100"
   height="125"
   inkscape:version="0.92.4 (5da689c313, 2019-01-14)">
  <metadata
     id="metadata20">
    <rdf:RDF>
      <cc:Work
         rdf:about="">
        <dc:format>image/svg+xml</dc:format>
        <dc:type
           rdf:resource="http://purl.org/dc/dcmitype/StillImage" />
        <dc:title>crane, shipping, harbor, industry</dc:title>
      </cc:Work>
    </rdf:RDF>
  </metadata>
  <defs
     id="defs18" />
  <sodipodi:namedview
     pagecolor="#ffffff"
     bordercolor="#666666"
     borderopacity="1"
     objecttolerance="10"
     gridtolerance="10"
     guidetolerance="10"
     inkscape:pageopacity="0"
     inkscape:pageshadow="2"
     inkscape:window-width="2560"
     inkscape:window-height="1017"
     id="namedview16"
     showgrid="false"
     inkscape:zoom="2.95"
     inkscape:cx="32"
     inkscape:cy="40"
     inkscape:window-x="-8"
     inkscape:window-y="-8"
     inkscape:window-maximized="1"
     inkscape:current-layer="g8" />
  <title
     id="title2">crane, shipping, harbor, industry</title>
  <g
     data-name="Layer 2"
     id="g8"
     transform="matrix(1.4143126,0,0,1.4143126,4.7419962,17.205568)">
    <path
       d="M 36.13,23 V 38 H 30 a 1,1 0 0 0 -1,1 v 8 a 1,1 0 0 0 1,1 h 14 a 1,1 0 0 0 1,-1 V 39 A 1,1 0 0 0 44,38 H 38.13 V 23 H 42 a 1,1 0 0 0 1,-1 v -8 c 0,0 0,0 0,-0.06 a 1,1 0 0 0 0,-0.2 0.85,0.85 0 0 0 -0.43,-0.58 1,1 0 0 0 -0.19,-0.1 h -0.05 l -28,-8 h -0.06 a 1,1 0 0 0 -0.26,0 h -0.1 a 1,1 0 0 0 -0.33,0.11 v 0 a 1,1 0 0 0 -0.2,0.15 l -8,8 A 1,1 0 0 0 5,14 v 44 a 1,1 0 0 0 1,1 h 8 a 1,1 0 0 0 1,-1 V 23 Z M 43,46 H 31 V 40 H 43 Z M 41,21 H 7 V 15 H 41 Z M 15,7.32 34.86,13 H 15 Z M 13,13 H 8.41 L 13,8.41 Z m 0,44 H 7 V 23 h 6 z"
       id="path4"
       inkscape:connector-curvature="0"
       style="fill:#e63946;fill-opacity:1" />
    <path
       d="M 58,49 H 22 a 1,1 0 0 0 -0.71,1.71 L 25,54.41 V 58 a 1,1 0 0 0 1,1 h 32 a 1,1 0 0 0 1,-1 v -8 a 1,1 0 0 0 -1,-1 z m -1,2 v 2 H 26.41 l -2,-2 z m 0,6 H 27 v -2 h 30 z"
       id="path6"
       inkscape:connector-curvature="0"
       style="fill:#090c9b;fill-opacity:1" />
  </g>
</svg>
